<?xml version="1.0" standalone="no"?>
<!DOCTYPE svg PUBLIC "-//W3C//DTD SVG 20010904//EN"
 "http://www.w3.org/TR/2001/REC-SVG-20010904/DTD/svg10.dtd">
<svg version="1.0" xmlns="http://www.w3.org/2000/svg"
 width="835.000000pt" height="835.000000pt" viewBox="0 0 835.000000 835.000000"
 preserveAspectRatio="xMidYMid meet">
<metadata>
Created by potrace 1.14, written by Peter Selinger 2001-2017
</metadata>
<g transform="translate(0.000000,835.000000) scale(0.100000,-0.100000)"
fill="#000000" stroke="none">
<path d="M3955 8213 c-790 -48 -1509 -303 -2145 -758 -336 -241 -684 -590
-922 -925 -413 -581 -651 -1208 -735 -1935 -23 -206 -23 -633 1 -835 39 -329
93 -579 187 -862 335 -1007 1066 -1851 2019 -2328 1049 -525 2264 -571 3350
-126 657 270 1260 738 1689 1311 730 975 981 2208 691 3390 -124 503 -351 993
-656 1412 -545 748 -1327 1283 -2229 1526 -386 104 -865 154 -1250 130z m369
-2699 c60 -29 98 -73 111 -126 l7 -28 -153 -1 c-85 0 -209 -3 -276 -5 l-123
-4 0 35 c0 24 9 45 31 70 60 68 140 96 259 91 69 -3 97 -9 144 -32z m641 -210
c403 -26 645 -51 1050 -110 158 -23 346 -54 930 -155 127 -22 313 -51 415 -65
102 -15 193 -29 202 -33 12 -4 2 -12 -37 -27 -30 -12 -52 -17 -49 -13 8 14
-34 10 -74 -7 -32 -13 -35 -17 -19 -25 26 -15 20 -29 -11 -23 -15 3 -97 -9
-182 -27 -85 -17 -167 -34 -182 -36 -14 -3 -81 7 -147 21 -67 14 -139 26 -160
26 -34 0 -287 -35 -508 -70 -79 -13 -97 -20 -158 -64 -27 -20 -59 -36 -71 -36
-11 0 -121 22 -245 49 -273 61 -445 91 -513 91 -48 0 -44 3 99 51 148 50 192
68 168 69 -17 0 -252 -35 -453 -69 -114 -19 -179 -26 -187 -20 -7 6 -12 6 -15
0 -1 -5 -230 -42 -508 -81 -278 -39 -608 -87 -735 -106 -126 -20 -242 -34
-257 -31 -15 2 -25 0 -22 -4 2 -4 -29 -12 -68 -19 -40 -6 -103 -17 -139 -25
-61 -13 -74 -12 -153 7 -86 20 -87 20 -69 40 14 16 10 15 -20 -5 -20 -14 -45
-23 -55 -21 -9 2 -105 26 -213 54 -268 68 -285 71 -447 71 -79 0 -166 4 -194
9 -91 18 -122 -7 -78 -63 l20 -25 -36 0 c-21 0 -48 -9 -65 -21 l-29 -22 0 40
c0 22 -4 42 -9 45 -4 3 -92 -21 -195 -54 -135 -43 -200 -59 -232 -58 -24 2
-44 4 -44 6 0 17 522 216 595 227 133 20 187 25 309 25 l139 0 106 54 c237
120 474 208 949 352 138 41 159 50 130 54 -33 6 -33 6 12 12 53 8 352 27 495
32 189 6 731 -5 960 -20z m35 -656 l22 -18 -30 0 c-16 0 -41 -9 -56 -21 l-26
-20 0 26 c0 14 -11 37 -25 50 l-24 25 30 0 c18 0 39 9 52 23 l22 22 6 -34 c4
-19 17 -43 29 -53z m237 86 c-3 -3 -12 -4 -19 -1 -8 3 -5 6 6 6 11 1 17 -2 13
-5z m40 -10 c-3 -3 -12 -4 -19 -1 -8 3 -5 6 6 6 11 1 17 -2 13 -5z m50 -10
c-3 -3 -12 -4 -19 -1 -8 3 -5 6 6 6 11 1 17 -2 13 -5z m46 -11 c-7 -2 -19 -2
-25 0 -7 3 -2 5 12 5 14 0 19 -2 13 -5z m77 -13 c20 -6 21 -8 5 -8 -11 0 -31
4 -45 8 -20 6 -21 8 -5 8 11 0 31 -4 45 -8z m-3471 -41 c2 -14 -38 -16 -43 -2
-10 24 -7 31 12 35 15 3 29 -12 31 -33z m2704 34 c-7 -2 -21 -2 -30 0 -10 3
-4 5 12 5 17 0 24 -2 18 -5z m-70 -10 c-7 -2 -19 -2 -25 0 -7 3 -2 5 12 5 14
0 19 -2 13 -5z m892 -2 c3 -5 -16 -38 -43 -73 -26 -35 -99 -130 -161 -213 -63
-82 -123 -159 -134 -170 -11 -11 60 86 156 215 118 157 172 237 164 242 -9 6
-9 8 0 8 6 0 14 -4 18 -9z m-977 -8 c-10 -2 -26 -2 -35 0 -10 3 -2 5 17 5 19
0 27 -2 18 -5z m525 -126 c-12 -7 -20 -5 -30 9 -12 16 -11 19 4 25 11 4 23 1
31 -9 10 -13 9 -18 -5 -25z m-3763 -12 c-13 -16 -120 -78 -125 -73 -8 8 12 27
59 57 54 34 88 42 66 16z m6268 3 c8 -10 3 -13 -21 -14 -18 0 -68 -16 -112
-36 -55 -23 -87 -32 -100 -27 -18 7 -17 8 5 9 14 0 66 18 115 40 105 45 100
44 113 28z m52 -72 c0 -18 -7 -25 -27 -29 -16 -3 -37 -9 -48 -12 -11 -4 -2 4
20 17 27 16 39 30 37 42 -2 11 1 15 7 11 6 -3 11 -17 11 -29z m-385 -76 c17
-19 17 -20 -3 -20 -11 0 -34 -12 -51 -26 l-31 -26 0 29 c0 16 -9 39 -19 50
-20 21 -20 21 9 27 16 3 37 13 47 23 17 18 18 17 24 -10 4 -15 15 -37 24 -47z
m-6145 0 c-24 -15 -37 -11 -16 5 11 8 22 12 25 9 3 -3 -1 -9 -9 -14z m1667
-12 c-3 -7 -5 -2 -5 12 0 14 2 19 5 13 2 -7 2 -19 0 -25z m4695 -18 c9 0 19
-4 23 -9 8 -14 -68 9 -85 25 -12 13 -10 12 15 0 17 -9 38 -16 47 -16z m-6469
-17 c15 -3 26 -9 25 -13 -2 -5 -35 -33 -75 -64 l-72 -56 -75 0 c-41 0 -77 4
-80 8 -7 12 217 143 234 136 8 -3 28 -8 43 -11z m1784 -15 c-3 -8 -6 -5 -6 6
-1 11 2 17 5 13 3 -3 4 -12 1 -19z m20 -130 c-3 -7 -5 -2 -5 12 0 14 2 19 5
13 2 -7 2 -19 0 -25z m4750 26 c-3 -3 -12 -4 -19 -1 -8 3 -5 6 6 6 11 1 17 -2
13 -5z m-59 -11 c-10 -2 -28 -2 -40 0 -13 2 -5 4 17 4 22 1 32 -1 23 -4z
m-6508 -110 c25 -26 73 -83 108 -125 44 -55 70 -78 90 -81 27 -4 27 -4 -3 -6
-21 -1 -54 -20 -104 -61 -70 -57 -81 -65 -81 -56 0 3 89 75 139 112 13 10 7
21 -40 70 -178 189 -209 223 -209 229 0 12 56 -33 100 -82z m5531 77 c36 -20
13 -76 -28 -68 -22 4 -29 43 -13 64 15 17 16 17 41 4z m-4273 -12 c18 -18 15
-41 -5 -34 -9 4 -20 1 -24 -5 -9 -16 -29 -2 -29 21 0 28 37 39 58 18z m2600
-25 c-10 -2 -26 -2 -35 0 -10 3 -2 5 17 5 19 0 27 -2 18 -5z m162 -13 c33 -6
22 -7 -40 -3 -47 3 -87 7 -89 9 -8 7 83 3 129 -6z m-155 -30 c43 -11 92 -20
108 -20 53 0 24 -9 -124 -39 -228 -46 -277 -49 -251 -15 4 5 -1 1 -10 -9 -19
-20 -157 -30 -768 -56 -231 -10 -246 -12 -262 -32 -23 -28 -23 -97 -1 -129
l18 -25 -29 23 c-31 24 -84 29 -116 12 -19 -10 -19 -9 -3 19 14 23 15 37 8 67
l-10 39 -100 5 -100 5 65 7 c36 4 115 13 175 21 125 17 128 18 435 52 124 14
322 34 440 45 118 11 235 22 259 26 34 4 41 3 35 -8 -6 -10 -5 -11 7 -1 14 11
87 30 125 32 11 1 56 -8 99 -19z m238 13 c-7 -2 -19 -2 -25 0 -7 3 -2 5 12 5
14 0 19 -2 13 -5z m50 -10 c-7 -2 -19 -2 -25 0 -7 3 -2 5 12 5 14 0 19 -2 13
-5z m199 -28 c82 -14 213 -41 291 -60 77 -19 149 -35 159 -35 16 0 18 -11 18
-110 l0 -111 -22 12 c-13 6 -63 40 -113 74 -192 132 -325 204 -426 229 -123
32 -92 32 93 1z m-2515 -7 c-3 -8 -6 -5 -6 6 -1 11 2 17 5 13 3 -3 4 -12 1
-19z m311 -135 c-16 -2 -40 -2 -55 0 -16 2 -3 4 27 4 30 0 43 -2 28 -4z m-171
-10 c-20 -2 -52 -2 -70 0 -17 2 0 4 38 4 39 0 53 -2 32 -4z m-129 -10 c-10 -2
-26 -2 -35 0 -10 3 -2 5 17 5 19 0 27 -2 18 -5z m-1575 -30 c-7 -2 -19 -2 -25
0 -7 3 -2 5 12 5 14 0 19 -2 13 -5z m70 -10 c-7 -2 -21 -2 -30 0 -10 3 -4 5
12 5 17 0 24 -2 18 -5z m400 -65 c4 -42 2 -48 -14 -48 -16 0 -19 8 -19 48 0
82 24 81 33 0z m4253 -19 c3 -5 -11 -9 -30 -9 -33 0 -44 8 -31 22 8 7 54 -3
61 -13z"/>
<path d="M5158 5263 c-16 -15 -40 -15 -325 -3 -481 20 -1174 -1 -1326 -40 -59
-16 -447 -136 -537 -167 -134 -46 -318 -122 -438 -180 l-117 -58 80 -6 c45 -3
147 -24 231 -47 84 -23 158 -42 165 -42 8 0 21 -5 29 -10 12 -8 10 -14 -15
-42 l-30 -33 35 33 c20 17 41 32 46 32 6 0 29 -18 52 -40 28 -28 49 -40 69
-40 46 0 57 13 49 59 -6 40 -6 41 20 31 14 -6 41 -22 60 -37 19 -14 34 -22 33
-17 -1 5 1 17 5 26 6 12 -2 34 -24 68 -18 28 -30 53 -27 57 4 3 28 -18 55 -47
l48 -52 140 21 c266 42 330 51 544 82 118 16 315 46 437 64 123 19 230 32 240
28 9 -4 14 -2 10 3 -5 10 170 40 642 110 l174 26 89 -43 c87 -41 91 -42 166
-36 82 7 277 32 327 43 l30 7 -25 9 c-14 5 -81 23 -150 39 -119 29 -242 64
-570 166 -80 24 -152 46 -160 49 -9 2 -23 -4 -32 -13z m-559 -30 c-11 -3 -15
-13 -13 -31 4 -27 4 -27 -4 -2 l-8 25 -204 5 -205 6 225 1 c124 0 218 -1 209
-4z m-566 -10 c-18 -2 -48 -2 -65 0 -18 2 -4 4 32 4 36 0 50 -2 33 -4z m735 0
c-15 -2 -42 -2 -60 0 -18 2 -6 4 27 4 33 0 48 -2 33 -4z m-890 -10 c-16 -2
-40 -2 -55 0 -16 2 -3 4 27 4 30 0 43 -2 28 -4z m1020 0 c-15 -2 -42 -2 -60 0
-18 2 -6 4 27 4 33 0 48 -2 33 -4z m-1155 -10 c-13 -2 -33 -2 -45 0 -13 2 -3
4 22 4 25 0 35 -2 23 -4z m1240 0 c-7 -2 -21 -2 -30 0 -10 3 -4 5 12 5 17 0
24 -2 18 -5z m-1365 -10 c-10 -2 -26 -2 -35 0 -10 3 -2 5 17 5 19 0 27 -2 18
-5z m-71 -9 c-3 -3 -12 -4 -19 -1 -8 3 -5 6 6 6 11 1 17 -2 13 -5z m1579 -46
c4 -7 -9 1 -29 16 -20 16 -37 30 -37 33 0 7 58 -36 66 -49z m-1649 26 c-3 -3
-12 -4 -19 -1 -8 3 -5 6 6 6 11 1 17 -2 13 -5z m1142 -89 l0 -20 -8 20 c-5 11
-11 38 -14 60 l-6 40 14 -40 c7 -22 14 -49 14 -60z m-1384 15 c-27 -12 -43
-12 -25 0 8 5 22 9 30 9 10 0 8 -3 -5 -9z m-65 -20 c-8 -5 -22 -9 -30 -9 -10
0 -8 3 5 9 27 12 43 12 25 0z m2055 -10 c10 -11 16 -20 13 -20 -3 0 -13 9 -23
20 -10 11 -16 20 -13 20 3 0 13 -9 23 -20z m-586 -65 l0 -20 -9 20 c-5 11 -9
29 -9 40 l0 20 9 -20 c5 -11 9 -29 9 -40z m-1479 23 c46 -5 99 -16 117 -23 41
-17 45 -40 6 -31 -16 4 -98 9 -183 12 -169 6 -206 0 -213 -38 -4 -20 -4 -19
-6 5 -1 24 -4 27 -23 22 -17 -4 -15 -1 7 12 42 24 177 63 195 56 8 -3 53 -9
100 -15z m1487 -80 c-3 -7 -5 -2 -5 12 0 14 2 19 5 13 2 -7 2 -19 0 -25z
m-1827 12 c-8 -5 -19 -10 -25 -10 -5 0 -3 5 5 10 8 5 20 10 25 10 6 0 3 -5 -5
-10z m-50 -20 c-8 -5 -19 -10 -25 -10 -5 0 -3 5 5 10 8 5 20 10 25 10 6 0 3
-5 -5 -10z m-70 -30 c-8 -5 -19 -10 -25 -10 -5 0 -3 5 5 10 8 5 20 10 25 10 6
0 3 -5 -5 -10z m-45 -20 c-3 -5 -12 -10 -18 -10 -7 0 -6 4 3 10 19 12 23 12
15 0z m363 -21 c30 -13 43 -24 40 -35 -4 -21 -28 -31 -28 -12 0 8 -25 25 -55
37 -30 13 -58 27 -61 33 -9 14 49 1 104 -23z m252 1 c-8 -5 -35 -9 -60 -8
l-45 1 40 7 c22 4 49 8 60 8 16 1 17 0 5 -8z"/>
<path d="M6067 5159 c7 -7 15 -10 18 -7 3 3 -2 9 -12 12 -14 6 -15 5 -6 -5z"/>
<path d="M4770 4855 c14 -8 30 -14 35 -14 6 0 -1 6 -15 14 -14 8 -29 14 -35
14 -5 0 1 -6 15 -14z"/>
<path d="M3420 3931 c-22 -6 -23 -8 -7 -14 30 -11 72 -8 93 8 18 13 16 14 -21
14 -22 -1 -51 -4 -65 -8z"/>
<path d="M5492 3988 c4 -12 144 -106 160 -107 4 -1 9 11 11 27 3 22 4 21 3 -6
-1 -30 15 -51 37 -52 4 0 7 21 5 46 l-3 47 -90 28 c-99 32 -129 36 -123 17z
m125 -70 c-3 -7 -5 -2 -5 12 0 14 2 19 5 13 2 -7 2 -19 0 -25z"/>
</g>
</svg>
